<?xml version="1.0" standalone="no"?>
<!DOCTYPE svg PUBLIC "-//W3C//DTD SVG 20010904//EN"
 "http://www.w3.org/TR/2001/REC-SVG-20010904/DTD/svg10.dtd">
<svg version="1.0" xmlns="http://www.w3.org/2000/svg"
 width="512.000000pt" height="512.000000pt" viewBox="0 0 512.000000 512.000000"
 preserveAspectRatio="xMidYMid meet">

<g transform="translate(0.000000,512.000000) scale(0.100000,-0.100000)"
fill="#000000" stroke="none">
<path d="M2600 4787 c0 -2 16 -31 35 -63 40 -66 60 -126 70 -205 3 -33 -22
-412 -65 -974 -38 -506 -70 -931 -70 -945 0 -20 104 79 561 535 308 308 569
577 580 597 36 70 16 182 -42 234 -13 12 -242 189 -509 394 -267 205 -502 386
-522 402 -21 16 -38 28 -38 25z"/>
<path d="M1215 3711 c-22 -10 -49 -28 -60 -41 -33 -37 -823 -1065 -820 -1068
1 -1 29 14 61 33 66 40 126 60 205 70 33 3 412 -22 974 -65 506 -38 931 -70
945 -70 20 0 -79 104 -535 561 -308 308 -577 569 -597 580 -47 24 -120 24
-173 0z"/>
<path d="M3135 1989 c308 -308 577 -569 597 -580 69 -36 182 -16 233 41 33 37
823 1065 820 1068 -1 1 -29 -14 -61 -33 -66 -40 -126 -60 -205 -70 -33 -3
-412 22 -974 65 -506 38 -931 70 -945 70 -20 0 79 -104 535 -561z"/>
<path d="M1983 1978 c-308 -310 -568 -577 -577 -595 -33 -65 -11 -180 44 -228
37 -33 1065 -823 1068 -820 1 1 -14 29 -33 61 -37 61 -60 127 -70 204 -3 25
26 463 65 975 39 511 69 938 68 948 -2 12 -175 -155 -565 -545z"/>
</g>
</svg>
