<?xml version="1.0" standalone="no"?>
<!DOCTYPE svg PUBLIC "-//W3C//DTD SVG 20010904//EN"
 "http://www.w3.org/TR/2001/REC-SVG-20010904/DTD/svg10.dtd">
<svg version="1.0" xmlns="http://www.w3.org/2000/svg"
 width="1000.000000pt" height="1000.000000pt" viewBox="0 0 1000.000000 1000.000000"
 preserveAspectRatio="xMidYMid meet">

<g transform="translate(0.000000,1000.000000) scale(0.100000,-0.100000)"
fill="#000000" stroke="none">
<path d="M4185 9185 c-448 -448 -813 -815 -810 -815 3 0 -39 -23 -92 -51 -487
-255 -901 -601 -1238 -1034 -126 -162 -249 -352 -361 -560 -47 -88 -62 -103
-866 -907 l-818 -818 809 -809 809 -809 52 -99 c28 -54 55 -105 60 -113 5 -8
35 -57 65 -109 160 -269 338 -496 564 -721 154 -153 193 -187 340 -302 187
-146 377 -269 589 -380 l114 -60 799 -799 799 -799 789 789 789 790 134 69
c280 146 564 338 774 524 149 132 348 343 479 508 54 67 265 374 265 384 0 2
20 37 43 78 24 40 66 118 93 173 l49 100 793 792 792 793 -798 798 -798 798
-62 116 c-118 222 -216 376 -355 558 -115 149 -174 217 -327 370 -282 282
-555 484 -925 680 l-119 64 -808 808 -808 808 -815 -815z m1115 -829 c19 -2
64 -7 99 -11 197 -18 555 -101 746 -173 162 -61 233 -92 378 -166 202 -102
230 -118 240 -133 4 -7 12 -13 18 -13 5 0 45 -23 87 -52 608 -407 1061 -983
1312 -1669 32 -89 106 -340 116 -393 3 -17 10 -51 15 -76 6 -25 12 -56 14 -70
2 -14 9 -59 15 -100 19 -126 19 -132 27 -215 10 -105 10 -457 0 -565 -29 -338
-97 -633 -212 -932 -48 -126 -48 -126 -123 -282 -213 -441 -550 -856 -954
-1173 -97 -76 -330 -233 -345 -233 -6 0 -13 -3 -15 -7 -7 -18 -247 -141 -399
-206 -153 -65 -417 -153 -519 -173 -14 -2 -65 -13 -115 -24 -81 -16 -160 -29
-280 -45 -194 -26 -646 -26 -795 -1 -31 5 -103 16 -155 22 -204 27 -534 123
-769 224 -490 209 -956 554 -1266 939 -19 24 -42 50 -51 60 -23 24 -119 156
-176 241 -153 229 -289 505 -382 775 -25 73 -74 236 -76 250 0 6 -4 24 -8 40
-4 17 -9 39 -11 50 -3 11 -12 53 -20 93 -9 40 -18 89 -21 110 -3 20 -7 55 -11
77 -7 52 -11 83 -20 180 -10 95 -10 519 -1 590 4 28 9 74 12 104 3 30 7 57 9
60 2 3 7 33 11 66 22 203 119 541 226 792 61 143 204 421 228 443 4 3 12 16
19 30 18 35 172 252 202 287 14 15 32 37 40 49 29 40 136 158 225 248 376 377
834 661 1332 825 117 38 328 94 403 106 19 3 49 8 65 12 17 3 37 7 45 8 30 3
125 17 145 21 11 2 63 7 115 10 52 4 97 8 99 10 5 4 442 -4 481 -10z"/>
</g>
</svg>
